<?xml version="1.0" encoding="UTF-8" standalone="no" ?>
<!DOCTYPE svg PUBLIC "-//W3C//DTD SVG 1.1//EN" "http://www.w3.org/Graphics/SVG/1.1/DTD/svg11.dtd">
<svg xmlns="http://www.w3.org/2000/svg" xmlns:xlink="http://www.w3.org/1999/xlink" version="1.1" width="1280" height="1024" viewBox="0 0 1280 1024" xml:space="preserve">
<desc>Created with Fabric.js 5.3.0</desc>
<defs>
</defs>
<g transform="matrix(1 0 0 1 640 512)" id="background-logo"  >
<rect style="stroke: none; stroke-width: 0; stroke-dasharray: none; stroke-linecap: butt; stroke-dashoffset: 0; stroke-linejoin: miter; stroke-miterlimit: 4; fill: rgb(255,255,255); fill-opacity: 0; fill-rule: nonzero; opacity: 1;"  paint-order="stroke"  x="-640" y="-512" rx="0" ry="0" width="1280" height="1024" />
</g>
<g transform="matrix(1.9211538461538462 0 0 1.9211538461538462 640 389.69948269811294)" id="logo-logo"  >
<g style=""  paint-order="stroke"   >
		<g transform="matrix(0.680158483776276 0 0 -0.6801584837762763 -81.30215779206318 9.458251124368104)"  >
<path style="stroke: none; stroke-width: 1; stroke-dasharray: none; stroke-linecap: butt; stroke-dashoffset: 0; stroke-linejoin: miter; stroke-miterlimit: 4; fill: rgb(43,174,224); fill-rule: nonzero; opacity: 1;"  paint-order="stroke"  transform=" translate(0, -28.841)" d="M 0 0 C 3.59 0 6.5 2.91 6.5 6.5 L 6.5 51.182 C 6.5 54.771 3.59 57.682 0 57.682 C -3.59 57.682 -6.5 54.771 -6.5 51.182 L -6.5 6.5 C -6.5 2.91 -3.59 0 0 0" stroke-linecap="round" />
</g>
		<g transform="matrix(0.680158483776276 0 0 -0.6801584837762763 -70.40130981994298 104.38646888158158)"  >
<path style="stroke: none; stroke-width: 1; stroke-dasharray: none; stroke-linecap: butt; stroke-dashoffset: 0; stroke-linejoin: miter; stroke-miterlimit: 4; fill: rgb(43,174,224); fill-rule: nonzero; opacity: 1;"  paint-order="stroke"  transform=" translate(15.809704099151453, -6.31041620378263)" d="M 0 0 L -1.936 0 C -13.518 0 -23.514 8.624 -25.187 20.06 C -25.707 23.612 -29.008000000000003 26.073 -32.56 25.551 C -36.112 25.031 -38.57 21.729999999999997 -38.050000000000004 18.179 C -35.45 0.403 -19.924 -13 -1.936 -13 L 0 -13 C 3.59 -13 6.5 -10.09 6.5 -6.5 C 6.5 -2.91 3.59 0 0 0" stroke-linecap="round" />
</g>
		<g transform="matrix(0.680158483776276 0 0 -0.6801584837762763 -71.76391581645805 -36.4161507583045)"  >
<path style="stroke: none; stroke-width: 1; stroke-dasharray: none; stroke-linecap: butt; stroke-dashoffset: 0; stroke-linejoin: miter; stroke-miterlimit: 4; fill: rgb(43,174,224); fill-rule: nonzero; opacity: 1;"  paint-order="stroke"  transform=" translate(-13.74039587737779, -21.463465146749435)" d="M 0 0 C 3.59 0 6.5 2.941 6.5 6.531 C 6.5 18.66 15.953 28.945 28.02 29.948999999999998 C 31.597 30.246 34.256 33.388 33.958 36.964999999999996 C 33.661 40.543 30.511999999999997 43.202999999999996 26.942 42.903999999999996 C 8.189 41.346 -6.5 25.369 -6.5 6.531 L -6.5 6.47 C -6.5 2.88 -3.59 0 0 0" stroke-linecap="round" />
</g>
		<g transform="matrix(0.680158483776276 0 0 -0.6801584837762763 -81.30215779206318 60.32887499426235)"  >
<path style="stroke: none; stroke-width: 1; stroke-dasharray: none; stroke-linecap: butt; stroke-dashoffset: 0; stroke-linejoin: miter; stroke-miterlimit: 4; fill: rgb(43,174,224); fill-rule: nonzero; opacity: 1;"  paint-order="stroke"  transform=" translate(0, -28.8405)" d="M 0 0 C 3.59 0 6.5 2.91 6.5 6.5 L 6.5 51.181 C 6.5 54.771 3.59 57.681 0 57.681 C -3.59 57.681 -6.5 54.771 -6.5 51.181 L -6.5 6.5 C -6.5 2.91 -3.59 0 0 0" stroke-linecap="round" />
</g>
		<g transform="matrix(0.680158483776276 0 0 -0.6801584837762763 -1.3626059965150716 -80.01954264678537)"  >
<path style="stroke: none; stroke-width: 1; stroke-dasharray: none; stroke-linecap: butt; stroke-dashoffset: 0; stroke-linejoin: miter; stroke-miterlimit: 4; fill: rgb(43,174,224); fill-rule: nonzero; opacity: 1;"  paint-order="stroke"  transform=" translate(-59.74850000000001, -55.334)" d="M 0 0 L 44.681 0 C 48.271 0 51.181 2.91 51.181 6.5 C 51.181 10.09 48.271 13 44.681 13 L 14.112 13 C 14.101 13.412 14.085 13.824 14.085 14.239 L 14.085 49.355000000000004 C 14.085 75.787 35.588 97.29 62.02 97.29 C 88.452 97.29 109.956 75.787 109.956 49.355000000000004 L 109.956 14.239 C 109.956 13.824000000000002 109.94 13.412 109.929 13 L 74.815 13 C 71.225 13 68.315 10.09 68.315 6.5 C 68.315 2.91 71.225 0 74.815 0 L 119.497 0 C 123.086 0 125.997 2.91 125.997 6.5 C 125.997 8.68 124.92 10.604 123.274 11.783000000000001 C 123.309 12.598 123.333 13.416 123.333 14.239 L 123.333 49.355000000000004 C 123.333 83.16300000000001 95.828 110.668 62.019999999999996 110.668 C 28.211999999999996 110.668 0.7079999999999984 83.16300000000001 0.7079999999999984 49.355000000000004 L 0.7079999999999984 14.239 C 0.708 13.824 0.72 13.412 0.729 13 L 0 13 C -3.59 13 -6.5 10.09 -6.5 6.5 C -6.5 2.91 -3.59 0 0 0" stroke-linecap="round" />
</g>
		<g transform="matrix(0.680158483776276 0 0 -0.6801584837762763 81.30215779206321 6.733039131338018)"  >
<path style="stroke: none; stroke-width: 1; stroke-dasharray: none; stroke-linecap: butt; stroke-dashoffset: 0; stroke-linejoin: miter; stroke-miterlimit: 4; fill: rgb(43,174,224); fill-rule: nonzero; opacity: 1;"  paint-order="stroke"  transform=" translate(0, 28.84)" d="M 0 0 C -3.59 0 -6.5 -2.91 -6.5 -6.5 L -6.5 -51.18 C -6.5 -54.769999999999996 -3.59 -57.68 0 -57.68 C 3.59 -57.68 6.5 -54.769999999999996 6.5 -51.18 L 6.5 -6.5 C 6.5 -2.91 3.59 0 0 0" stroke-linecap="round" />
</g>
		<g transform="matrix(0.680158483776276 0 0 -0.6801584837762763 27.252119930300466 113.01630685951008)"  >
<path style="stroke: none; stroke-width: 1; stroke-dasharray: none; stroke-linecap: butt; stroke-dashoffset: 0; stroke-linejoin: miter; stroke-miterlimit: 4; fill: rgb(43,174,224); fill-rule: nonzero; opacity: 1;"  paint-order="stroke"  transform=" translate(22.3405, 6.5)" d="M 0 0 L -44.681 0 C -48.271 0 -51.181 -2.91 -51.181 -6.5 C -51.181 -10.09 -48.271 -13 -44.681 -13 L 0 -13 C 3.59 -13 6.5 -10.09 6.5 -6.5 C 6.5 -2.91 3.59 0 0 0" stroke-linecap="round" />
</g>
		<g transform="matrix(0.680158483776276 0 0 -0.6801584837762763 71.76391581645805 103.02386288506656)"  >
<path style="stroke: none; stroke-width: 1; stroke-dasharray: none; stroke-linecap: butt; stroke-dashoffset: 0; stroke-linejoin: miter; stroke-miterlimit: 4; fill: rgb(43,174,224); fill-rule: nonzero; opacity: 1;"  paint-order="stroke"  transform=" translate(13.771296333268452, 21.512)" d="M 0 0 C -3.59 0 -6.5 -2.91 -6.5 -6.5 L -6.5 -6.623 C -6.5 -18.776 -15.974 -29.065 -28.067 -30.046 C -31.646 -30.336 -34.311 -33.472 -34.021 -37.05 C -33.745 -40.449 -30.901 -43.024 -27.549 -43.024 C -27.373 -43.024 -27.195 -43.018 -27.017 -43.003 C -8.223 -41.479 6.5 -25.499 6.5 -6.623 L 6.5 -6.5 C 6.5 -2.91 3.59 0 0 0" stroke-linecap="round" />
</g>
		<g transform="matrix(0.680158483776276 0 0 -0.6801584837762763 81.30215779206321 57.149461002393906)"  >
<path style="stroke: none; stroke-width: 1; stroke-dasharray: none; stroke-linecap: butt; stroke-dashoffset: 0; stroke-linejoin: miter; stroke-miterlimit: 4; fill: rgb(43,174,224); fill-rule: nonzero; opacity: 1;"  paint-order="stroke"  transform=" translate(0, 28.8405)" d="M 0 0 C -3.59 0 -6.5 -2.91 -6.5 -6.5 L -6.5 -51.181 C -6.5 -54.771 -3.59 -57.681 0 -57.681 C 3.59 -57.681 6.5 -54.771 6.5 -51.181 L 6.5 -6.5 C 6.5 -2.91 3.59 0 0 0" stroke-linecap="round" />
</g>
		<g transform="matrix(0.680158483776276 0 0 -0.6801584837762763 -24.072705938432023 113.01630685951008)"  >
<path style="stroke: none; stroke-width: 1; stroke-dasharray: none; stroke-linecap: butt; stroke-dashoffset: 0; stroke-linejoin: miter; stroke-miterlimit: 4; fill: rgb(43,174,224); fill-rule: nonzero; opacity: 1;"  paint-order="stroke"  transform=" translate(22.3405, 6.5)" d="M 0 0 L -44.681 0 C -48.271 0 -51.181 -2.91 -51.181 -6.5 C -51.181 -10.09 -48.271 -13 -44.681 -13 L 0 -13 C 3.59 -13 6.5 -10.09 6.5 -6.5 C 6.5 -2.91 3.59 0 0 0" stroke-linecap="round" />
</g>
		<g transform="matrix(0.680158483776276 0 0 -0.6801584837762763 70.40130981994292 -37.77875675481957)"  >
<path style="stroke: none; stroke-width: 1; stroke-dasharray: none; stroke-linecap: butt; stroke-dashoffset: 0; stroke-linejoin: miter; stroke-miterlimit: 4; fill: rgb(43,174,224); fill-rule: nonzero; opacity: 1;"  paint-order="stroke"  transform=" translate(-15.836027430665911, 6.280000000000001)" d="M 0 0 L 1.998 0 C 13.556999999999999 0 23.549 -8.604 25.241 -20.012 C 25.72 -23.240000000000002 28.494 -25.560000000000002 31.663 -25.560000000000002 C 31.979 -25.560000000000002 32.302 -25.536 32.625 -25.488000000000003 C 36.176 -24.961000000000002 38.627 -21.656000000000002 38.101 -18.105000000000004 C 35.47 -0.372 19.949 13 1.998 13 L 0 13 C -3.59 13 -6.5 10.09 -6.5 6.5 C -6.5 2.91 -3.59 0 0 0" stroke-linecap="round" />
</g>
		<g transform="matrix(0.680158483776276 0 0 -0.6801584837762763 21.801695944240464 -27.786312780375965)"  >
<path style="stroke: none; stroke-width: 1; stroke-dasharray: none; stroke-linecap: butt; stroke-dashoffset: 0; stroke-linejoin: miter; stroke-miterlimit: 4; fill: rgb(43,174,224); fill-rule: nonzero; opacity: 1;"  paint-order="stroke"  transform=" translate(22.5775, -6.5)" d="M 0 0 C 3.59 0 6.5 2.91 6.5 6.5 C 6.5 10.09 3.59 13 0 13 L -45.155 13 C -48.745000000000005 13 -51.655 10.09 -51.655 6.5 C -51.655 2.91 -48.745000000000005 0 -45.155 0 z" stroke-linecap="round" />
</g>
		<g transform="matrix(0.680158483776276 0 0 -0.6801584837762763 50.416421871055945 86.21838892804774)"  >
<path style="stroke: none; stroke-width: 1; stroke-dasharray: none; stroke-linecap: butt; stroke-dashoffset: 0; stroke-linejoin: miter; stroke-miterlimit: 4; fill: rgb(43,174,224); fill-rule: nonzero; opacity: 1;"  paint-order="stroke"  transform=" translate(-22.581, -11.392)" d="M 0 0 C 0 -3.59 2.91 -6.5 6.5 -6.5 L 15.923 -6.5 C 32.046 -6.5 45.162 6.616 45.162 22.738 L 45.162 22.831 C 45.162 26.421 42.251999999999995 29.284 38.662 29.284 C 35.072 29.284 32.162 26.328 32.162 22.738 C 32.162 13.784 24.877 6.5 15.923 6.5 L 6.5 6.5 C 2.91 6.5 0 3.59 0 0" stroke-linecap="round" />
</g>
		<g transform="matrix(0.680158483776276 0 0 -0.6801584837762763 3.633615990706687 93.93982290829965)"  >
<path style="stroke: none; stroke-width: 1; stroke-dasharray: none; stroke-linecap: butt; stroke-dashoffset: 0; stroke-linejoin: miter; stroke-miterlimit: 4; fill: rgb(43,174,224); fill-rule: nonzero; opacity: 1;"  paint-order="stroke"  transform=" translate(-22.5775, -6.5)" d="M 0 0 L 45.155 0 C 48.745000000000005 0 51.655 2.91 51.655 6.5 C 51.655 10.09 48.745000000000005 13 45.155 13 L 0 13 C -3.59 13 -6.5 10.09 -6.5 6.5 C -6.5 2.91 -3.59 0 0 0" stroke-linecap="round" />
</g>
		<g transform="matrix(0.680158483776276 0 0 -0.6801584837762763 61.77147184201448 42.16079504072874)"  >
<path style="stroke: none; stroke-width: 1; stroke-dasharray: none; stroke-linecap: butt; stroke-dashoffset: 0; stroke-linejoin: miter; stroke-miterlimit: 4; fill: rgb(43,174,224); fill-rule: nonzero; opacity: 1;"  paint-order="stroke"  transform=" translate(0, 29.0775)" d="M 0 0 C -3.59 0 -6.5 -2.91 -6.5 -6.5 L -6.5 -51.655 C -6.5 -55.245000000000005 -3.59 -58.155 0 -58.155 C 3.59 -58.155 6.5 -55.245000000000005 6.5 -51.655 L 6.5 -6.5 C 6.5 -2.91 3.59 0 0 0" stroke-linecap="round" />
</g>
		<g transform="matrix(0.680158483776276 0 0 -0.6801584837762763 59.046259848984505 -8.255626830327316)"  >
<path style="stroke: none; stroke-width: 1; stroke-dasharray: none; stroke-linecap: butt; stroke-dashoffset: 0; stroke-linejoin: miter; stroke-miterlimit: 4; fill: rgb(43,174,224); fill-rule: nonzero; opacity: 1;"  paint-order="stroke"  transform=" translate(-2.999546627930557, 5.200046617888582)" d="M 0 0 L 0 -26.812 C 0 -30.402 2.91 -33.313 6.5 -33.313 C 10.09 -33.313 13 -30.402 13 -26.812 L 13 0 C 13 8.041 9.804 15.535 3.9990000000000006 21.104 C 1.4070000000000005 23.588 -2.707 23.503999999999998 -5.190999999999999 20.912 C -7.677 18.322 -7.590999999999999 14.206999999999999 -5.000999999999999 11.722999999999999 C -1.776 8.629 0 4.467 0 0" stroke-linecap="round" />
</g>
		<g transform="matrix(0.680158483776276 0 0 -0.6801584837762763 -29.52312992449231 -27.786312780375965)"  >
<path style="stroke: none; stroke-width: 1; stroke-dasharray: none; stroke-linecap: butt; stroke-dashoffset: 0; stroke-linejoin: miter; stroke-miterlimit: 4; fill: rgb(43,174,224); fill-rule: nonzero; opacity: 1;"  paint-order="stroke"  transform=" translate(-22.5775, -6.5)" d="M 0 0 L 45.155 0 C 48.745000000000005 0 51.655 2.91 51.655 6.5 C 51.655 10.09 48.745000000000005 13 45.155 13 L 0 13 C -3.59 13 -6.5 10.09 -6.5 6.5 C -6.5 2.91 -3.59 0 0 0" stroke-linecap="round" />
</g>
		<g transform="matrix(0.680158483776276 0 0 -0.6801584837762763 -61.771471842014535 49.882229020980475)"  >
<path style="stroke: none; stroke-width: 1; stroke-dasharray: none; stroke-linecap: butt; stroke-dashoffset: 0; stroke-linejoin: miter; stroke-miterlimit: 4; fill: rgb(43,174,224); fill-rule: nonzero; opacity: 1;"  paint-order="stroke"  transform=" translate(0, 29.0775)" d="M 0 0 C -3.59 0 -6.5 -2.91 -6.5 -6.5 L -6.5 -51.655 C -6.5 -55.245000000000005 -3.59 -58.155 0 -58.155 C 3.59 -58.155 6.5 -55.245000000000005 6.5 -51.655 L 6.5 -6.5 C 6.5 -2.91 3.59 0 0 0" stroke-linecap="round" />
</g>
		<g transform="matrix(0.680158483776276 0 0 -0.6801584837762763 -61.317269843176234 -1.442596847752128)"  >
<path style="stroke: none; stroke-width: 1; stroke-dasharray: none; stroke-linecap: butt; stroke-dashoffset: 0; stroke-linejoin: miter; stroke-miterlimit: 4; fill: rgb(43,174,224); fill-rule: nonzero; opacity: 1;"  paint-order="stroke"  transform=" translate(-5.5907443388866, 24.563919799711087)" d="M 0 0 C -0.988 -2.971 -1.488 -6.075 -1.488 -9.229 L -1.488 -47.08 C -1.488 -50.67 1.4220000000000002 -53.58 5.0120000000000005 -53.58 C 8.602 -53.58 11.512 -50.67 11.512 -47.08 L 11.512 -9.229 C 11.512 -7.470999999999999 11.789 -5.745999999999999 12.336 -4.1 C 13.468 -0.6929999999999996 11.625 2.9860000000000007 8.218 4.118 C 4.81 5.252 1.132 3.406 0 0" stroke-linecap="round" />
</g>
		<g transform="matrix(0.680158483776276 0 0 -0.6801584837762763 -45.874401882672544 89.8520049187546)"  >
<path style="stroke: none; stroke-width: 1; stroke-dasharray: none; stroke-linecap: butt; stroke-dashoffset: 0; stroke-linejoin: miter; stroke-miterlimit: 4; fill: rgb(43,174,224); fill-rule: nonzero; opacity: 1;"  paint-order="stroke"  transform=" translate(26.7659723731108, -6.106751624425364)" d="M 0 0 C 0 3.59 -2.91 6.5 -6.5 6.5 L -26.87 6.5 C -32.938 6.5 -38.456 9.844 -41.271 15.226 C -42.936 18.407 -46.864000000000004 19.635 -50.044 17.972 C -53.224999999999994 16.307000000000002 -54.45399999999999 12.379000000000001 -52.79 9.198000000000002 C -47.724 -0.484 -37.792 -6.5 -26.87 -6.5 L -6.5 -6.5 C -2.91 -6.5 0 -3.59 0 0" stroke-linecap="round" />
</g>
		<g transform="matrix(1.1391527995145754 0 0 -1.1391527995145756 -2.202371611033584 33.31948201020387)"  >
<path style="stroke: none; stroke-width: 1; stroke-dasharray: none; stroke-linecap: butt; stroke-dashoffset: 0; stroke-linejoin: miter; stroke-miterlimit: 4; fill: rgb(43,174,224); fill-rule: nonzero; opacity: 1;"  paint-order="stroke"  transform=" translate(-24.2685, 9.962000000000003)" d="M 0 0 C 0 -7.469 3.377 -14.148 8.686 -18.6 L 8.686 -44.194 L 39.852 -44.194 L 39.852 -18.6 C 45.16 -14.148000000000001 48.537 -7.469000000000001 48.537 0 C 48.537 13.403 37.672 24.27 24.269 24.27 C 10.865 24.27 0 13.403 0 0" stroke-linecap="round" />
</g>
</g>
</g>
</svg>