<svg xmlns="http://www.w3.org/2000/svg" xmlns:xlink="http://www.w3.org/1999/xlink" contentStyleType="text/css" data-diagram-type="DESCRIPTION" height="970px" preserveAspectRatio="none" style="width:828px;height:970px;background:#FFFFFF;" version="1.1" viewBox="0 0 828 970" width="828px" zoomAndPan="magnify"><title>PhishCheck Use Case Diagram</title><defs/><g><g class="title" data-source-line="1"><text fill="#000000" font-family="sans-serif" font-size="14" font-weight="bold" lengthAdjust="spacing" textLength="206.9785" x="303.5107" y="24.5332">PhishCheck Use Case Diagram</text></g><!--cluster PhishCheck--><g class="cluster" data-entity="PhishCheck" data-source-line="13" data-uid="ent0009" id="cluster_PhishCheck"><rect fill="none" height="514" rx="2.5" ry="2.5" style="stroke:#181818;stroke-width:1;" width="509" x="313" y="300.5494"/><text fill="#000000" font-family="sans-serif" font-size="14" font-weight="bold" lengthAdjust="spacing" textLength="80.1377" x="527.4312" y="317.0826">PhishCheck</text></g><!--entity UC_Register--><g class="entity" data-entity="UC_Register" data-source-line="14" data-uid="ent0010" id="entity_UC_Register"><ellipse cx="420.1325" cy="572.3759" fill="#F1F1F1" rx="72.1325" ry="16.8265" style="stroke:#181818;stroke-width:0.5;"/><text fill="#000000" font-family="sans-serif" font-size="14" lengthAdjust="spacing" textLength="106.6064" x="366.8292" y="577.6806">Register Account</text></g><!--entity UC_Login--><g class="entity" data-entity="UC_Login" data-source-line="15" data-uid="ent0011" id="entity_UC_Login"><ellipse cx="717.0336" cy="429.7561" fill="#F1F1F1" rx="89.0336" ry="20.2067" style="stroke:#181818;stroke-width:0.5;"/><text fill="#000000" font-family="sans-serif" font-size="14" lengthAdjust="spacing" textLength="147.834" x="643.1166" y="435.0608">Login (Email/Password)</text></g><!--entity UC_OAuth--><g class="entity" data-entity="UC_OAuth" data-source-line="16" data-uid="ent0012" id="entity_UC_OAuth"><ellipse cx="420.1377" cy="503.3769" fill="#F1F1F1" rx="72.1377" ry="16.8275" style="stroke:#181818;stroke-width:0.5;"/><text fill="#000000" font-family="sans-serif" font-size="14" lengthAdjust="spacing" textLength="106.6201" x="366.8277" y="508.6816">Login with OAuth</text></g><!--entity UC_Verify--><g class="entity" data-entity="UC_Verify" data-source-line="17" data-uid="ent0013" id="entity_UC_Verify"><ellipse cx="716.8086" cy="572.5011" fill="#F1F1F1" rx="55.8086" ry="15.4517" style="stroke:#181818;stroke-width:0.5;"/><text fill="#000000" font-family="sans-serif" font-size="14" lengthAdjust="spacing" textLength="74.6826" x="679.4673" y="577.8058">Verify Email</text></g><!--entity UC_Email--><g class="entity" data-entity="UC_Email" data-source-line="18" data-uid="ent0014" id="entity_UC_Email"><ellipse cx="419.8298" cy="709.6153" fill="#F1F1F1" rx="80.8298" ry="18.566" style="stroke:#181818;stroke-width:0.5;"/><text fill="#000000" font-family="sans-serif" font-size="14" lengthAdjust="spacing" textLength="128.3652" x="355.6471" y="714.92">Analyze Email (.eml)</text></g><!--entity UC_URL--><g class="entity" data-entity="UC_URL" data-source-line="19" data-uid="ent0015" id="entity_UC_URL"><ellipse cx="419.7728" cy="640.5011" fill="#F1F1F1" rx="60.7728" ry="15.4517" style="stroke:#181818;stroke-width:0.5;"/><text fill="#000000" font-family="sans-serif" font-size="14" lengthAdjust="spacing" textLength="81.7031" x="378.9213" y="645.8058">Analyze URL</text></g><!--entity UC_File--><g class="entity" data-entity="UC_File" data-source-line="20" data-uid="ent0016" id="entity_UC_File"><ellipse cx="420.058" cy="780.361" fill="#F1F1F1" rx="74.558" ry="17.3116" style="stroke:#181818;stroke-width:0.5;"/><text fill="#000000" font-family="sans-serif" font-size="14" lengthAdjust="spacing" textLength="112.8271" x="363.6445" y="785.6657">Analyze File/Hash</text></g><!--entity UC_View--><g class="entity" data-entity="UC_View" data-source-line="21" data-uid="ent0017" id="entity_UC_View"><ellipse cx="716.9004" cy="734.3295" fill="#F1F1F1" rx="84.4004" ry="19.2801" style="stroke:#181818;stroke-width:0.5;"/><text fill="#000000" font-family="sans-serif" font-size="14" lengthAdjust="spacing" textLength="136.9375" x="648.4317" y="739.6342">View Analysis Results</text></g><!--entity UC_AI--><g class="entity" data-entity="UC_AI" data-source-line="22" data-uid="ent0018" id="entity_UC_AI"><ellipse cx="420.0758" cy="432.7645" fill="#F1F1F1" rx="84.0758" ry="19.2152" style="stroke:#181818;stroke-width:0.5;"/><text fill="#000000" font-family="sans-serif" font-size="14" lengthAdjust="spacing" textLength="136.165" x="351.9933" y="438.0692">Chat with AI Assistant</text></g><!--entity UC_Account--><g class="entity" data-entity="UC_Account" data-source-line="23" data-uid="ent0019" id="entity_UC_Account"><ellipse cx="420.0533" cy="357.66" fill="#F1F1F1" rx="91.0533" ry="20.6107" style="stroke:#181818;stroke-width:0.5;"/><text fill="#000000" font-family="sans-serif" font-size="14" lengthAdjust="spacing" textLength="152.5166" x="343.795" y="362.9647">View Account and Limits</text></g><!--entity Guest--><g class="entity" data-entity="Guest" data-source-line="4" data-uid="ent0002" id="entity_Guest"><ellipse cx="41.3999" cy="611.0494" fill="#F1F1F1" rx="8" ry="8" style="stroke:#181818;stroke-width:0.5;"/><path d="M41.3999,619.0494 L41.3999,646.0494 M28.3999,627.0494 L54.3999,627.0494 M41.3999,646.0494 L28.3999,661.0494 M41.3999,646.0494 L54.3999,661.0494" fill="none" style="stroke:#181818;stroke-width:0.5;"/><text fill="#000000" font-family="sans-serif" font-size="14" lengthAdjust="spacing" textLength="70.7998" x="6" y="677.0826">Guest User</text></g><!--entity User--><g class="entity" data-entity="User" data-source-line="5" data-uid="ent0003" id="entity_User"><ellipse cx="202.0757" cy="222.0494" fill="#F1F1F1" rx="8" ry="8" style="stroke:#181818;stroke-width:0.5;"/><path d="M202.0757,230.0494 L202.0757,257.0494 M189.0757,238.0494 L215.0757,238.0494 M202.0757,257.0494 L189.0757,272.0494 M202.0757,257.0494 L215.0757,272.0494" fill="none" style="stroke:#181818;stroke-width:0.5;"/><text fill="#000000" font-family="sans-serif" font-size="14" lengthAdjust="spacing" textLength="101.1514" x="151.5" y="288.0826">Registered User</text></g><!--entity OAuth--><g class="entity" data-entity="OAuth" data-source-line="6" data-uid="ent0004" id="entity_OAuth"><ellipse cx="201.855" cy="448.0494" fill="#F1F1F1" rx="8" ry="8" style="stroke:#181818;stroke-width:0.5;"/><path d="M201.855,456.0494 L201.855,483.0494 M188.855,464.0494 L214.855,464.0494 M201.855,483.0494 L188.855,498.0494 M201.855,483.0494 L214.855,498.0494" fill="none" style="stroke:#181818;stroke-width:0.5;"/><text fill="#000000" font-family="sans-serif" font-size="14" lengthAdjust="spacing" textLength="95.71" x="154" y="514.0826">OAuth Provider</text></g><!--entity EmailSvc--><g class="entity" data-entity="EmailSvc" data-source-line="7" data-uid="ent0005" id="entity_EmailSvc"><ellipse cx="419.7896" cy="842.0494" fill="#F1F1F1" rx="8" ry="8" style="stroke:#181818;stroke-width:0.5;"/><path d="M419.7896,850.0494 L419.7896,877.0494 M406.7896,858.0494 L432.7896,858.0494 M419.7896,877.0494 L406.7896,892.0494 M419.7896,877.0494 L432.7896,892.0494" fill="none" style="stroke:#181818;stroke-width:0.5;"/><text fill="#000000" font-family="sans-serif" font-size="14" lengthAdjust="spacing" textLength="85.5791" x="377" y="908.0826">Email Service</text></g><!--entity ThreatIntel--><g class="entity" data-entity="ThreatIntel" data-source-line="8" data-uid="ent0006" id="entity_ThreatIntel"><ellipse cx="202.1929" cy="703.0494" fill="#F1F1F1" rx="8" ry="8" style="stroke:#181818;stroke-width:0.5;"/><path d="M202.1929,711.0494 L202.1929,738.0494 M189.1929,719.0494 L215.1929,719.0494 M202.1929,738.0494 L189.1929,753.0494 M202.1929,738.0494 L215.1929,753.0494" fill="none" style="stroke:#181818;stroke-width:0.5;"/><text fill="#000000" font-family="sans-serif" font-size="14" lengthAdjust="spacing" textLength="128.3857" x="138" y="769.0826">Threat Intel Services</text></g><!--entity AI--><g class="entity" data-entity="AI" data-source-line="9" data-uid="ent0007" id="entity_AI"><ellipse cx="201.8999" cy="335.0494" fill="#F1F1F1" rx="8" ry="8" style="stroke:#181818;stroke-width:0.5;"/><path d="M201.8999,343.0494 L201.8999,370.0494 M188.8999,351.0494 L214.8999,351.0494 M201.8999,370.0494 L188.8999,385.0494 M201.8999,370.0494 L214.8999,385.0494" fill="none" style="stroke:#181818;stroke-width:0.5;"/><text fill="#000000" font-family="sans-serif" font-size="14" lengthAdjust="spacing" textLength="63.7998" x="170" y="401.0826">AI Service</text></g><!--reverse link Guest to User--><g class="link" data-entity-1="Guest" data-entity-2="User" data-source-line="11" data-uid="lnk8" id="link_Guest_User"><path d="M48.8082,584.6416 C57.0682,519.3216 78.17,403.5994 138,308.5494 C141.74,302.5994 146.29,296.9194 151.22,291.5994" fill="none" id="Guest-backto-User" style="stroke:#181818;stroke-width:1;"/><polygon fill="none" points="46.55,602.4994,54.7608,585.3943,42.8556,583.8889,46.55,602.4994" style="stroke:#181818;stroke-width:1;"/></g><!--link Guest to UC_Register--><g class="link" data-entity-1="Guest" data-entity-2="UC_Register" data-source-line="26" data-uid="lnk20" id="link_Guest_UC_Register"><path d="M77.11,625.7694 C86.64,621.9394 97.08,618.1894 107,615.5494 C189.17,593.6794 280.6513,583.014 344.5113,577.624" fill="none" id="Guest-to-UC_Register" style="stroke:#181818;stroke-width:1;"/><polygon fill="#181818" points="350.49,577.1194,341.1855,573.8905,345.5077,577.5399,341.8583,581.8621,350.49,577.1194" style="stroke:#181818;stroke-width:1;"/></g><!--link Guest to UC_Login--><g class="link" data-entity-1="Guest" data-entity-2="UC_Login" data-source-line="27" data-uid="lnk21" id="link_Guest_UC_Login"><path d="M44.8,602.2994 C51.5,503.1194 74.73,246.6994 138,195.5494 C324.68,44.6094 617.4845,326.4013 693.5945,405.6713" fill="none" id="Guest-to-UC_Login" style="stroke:#181818;stroke-width:1;"/><polygon fill="#181818" points="697.75,409.9994,694.4021,400.737,694.2871,406.3927,688.6314,406.2777,697.75,409.9994" style="stroke:#181818;stroke-width:1;"/></g><!--link Guest to UC_Email--><g class="link" data-entity-1="Guest" data-entity-2="UC_Email" data-source-line="28" data-uid="lnk22" id="link_Guest_UC_Email"><path d="M55.52,680.8594 C69.64,716.4394 95.98,766.6494 138,789.5494 C187.96,816.7594 214.12,812.8894 266,789.5494 C289.83,778.8194 283.08,759.7694 305,745.5494 C321.28,734.9794 335.1191,729.0402 353.4391,723.5902" fill="none" id="Guest-to-UC_Email" style="stroke:#181818;stroke-width:1;"/><polygon fill="#181818" points="359.19,721.8794,349.4231,720.6117,354.3976,723.3051,351.7042,728.2796,359.19,721.8794" style="stroke:#181818;stroke-width:1;"/></g><!--link Guest to UC_URL--><g class="link" data-entity-1="Guest" data-entity-2="UC_URL" data-source-line="29" data-uid="lnk23" id="link_Guest_UC_URL"><path d="M77.25,641.4494 C141.42,641.2794 273.22,640.9352 352.85,640.7252" fill="none" id="Guest-to-UC_URL" style="stroke:#181818;stroke-width:1;"/><polygon fill="#181818" points="358.85,640.7094,349.8395,636.7331,353.85,640.7226,349.8606,644.7331,358.85,640.7094" style="stroke:#181818;stroke-width:1;"/></g><!--link Guest to UC_File--><g class="link" data-entity-1="Guest" data-entity-2="UC_File" data-source-line="30" data-uid="lnk24" id="link_Guest_UC_File"><path d="M50.39,680.8494 C61.48,723.9594 86.4,790.4994 138,816.5494 C188.79,842.1794 209.49,823.1094 266,816.5494 C302.59,812.2994 337.3547,804.1101 367.5047,795.8201" fill="none" id="Guest-to-UC_File" style="stroke:#181818;stroke-width:1;"/><polygon fill="#181818" points="373.29,794.2294,363.5516,792.7586,368.4689,795.555,365.6725,800.4723,373.29,794.2294" style="stroke:#181818;stroke-width:1;"/></g><!--link Guest to UC_View--><g class="link" data-entity-1="Guest" data-entity-2="UC_View" data-source-line="31" data-uid="lnk25" id="link_Guest_UC_View"><path d="M53.99,680.7194 C64.85,714.4694 83.04,763.7294 107,802.5494 C161.91,891.5094 203.75,903.4994 305,929.5494 C393.67,952.3494 425.98,963.5194 511,929.5494 C601.77,893.2694 671.9253,800.5272 700.1753,758.8172" fill="none" id="Guest-to-UC_View" style="stroke:#181818;stroke-width:1;"/><polygon fill="#181818" points="703.54,753.8494,695.1811,759.058,700.7361,757.9892,701.8049,763.5442,703.54,753.8494" style="stroke:#181818;stroke-width:1;"/></g><!--link User to UC_AI--><g class="link" data-entity-1="User" data-entity-2="UC_AI" data-source-line="33" data-uid="lnk26" id="link_User_UC_AI"><path d="M251.01,291.7494 C256.37,297.1094 261.51,302.7694 266,308.5494 C284.42,332.2494 285.8,340.6994 297,368.5494 C301.67,380.1594 296.26,386.5794 305,395.5494 C317.2,408.0594 327.9728,414.4674 344.5928,419.9574" fill="none" id="User-to-UC_AI" style="stroke:#181818;stroke-width:1;"/><polygon fill="#181818" points="350.29,421.8394,342.9988,415.2183,345.5423,420.2711,340.4895,422.8146,350.29,421.8394" style="stroke:#181818;stroke-width:1;"/></g><!--link User to UC_Account--><g class="link" data-entity-1="User" data-entity-2="UC_Account" data-source-line="34" data-uid="lnk27" id="link_User_UC_Account"><path d="M252.55,276.6394 C291.54,295.5894 339.6636,318.9867 375.3836,336.3467" fill="none" id="User-to-UC_Account" style="stroke:#181818;stroke-width:1;"/><polygon fill="#181818" points="380.78,338.9694,374.4338,331.4377,376.283,336.7838,370.9369,338.633,380.78,338.9694" style="stroke:#181818;stroke-width:1;"/></g><!--link User to UC_Verify--><g class="link" data-entity-1="User" data-entity-2="UC_Verify" data-source-line="35" data-uid="lnk28" id="link_User_UC_Verify"><path d="M252.67,253.2894 C316.91,256.3794 430.14,269.2594 511,319.5494 C581.91,363.6394 575.33,401.7494 628,466.5494 C654.4,499.0294 681.9737,532.0327 699.2137,552.5827" fill="none" id="User-to-UC_Verify" style="stroke:#181818;stroke-width:1;"/><polygon fill="#181818" points="703.07,557.1794,700.35,547.7136,699.8564,553.3488,694.2212,552.8552,703.07,557.1794" style="stroke:#181818;stroke-width:1;"/></g><!--link UC_OAuth to UC_Login--><g class="link" data-entity-1="UC_OAuth" data-entity-2="UC_Login" data-source-line="37" data-uid="lnk29" id="link_UC_OAuth_UC_Login"><path d="M470.04,491.2394 C521.41,478.3594 596.2601,459.5786 651.1001,445.8286" fill="none" id="UC_OAuth-to-UC_Login" style="stroke:#181818;stroke-width:1;stroke-dasharray:7,7;"/><polygon fill="#181818" points="656.92,444.3694,647.2174,442.6783,652.0701,445.5854,649.163,450.4381,656.92,444.3694" style="stroke:#181818;stroke-width:1;"/><text fill="#000000" font-family="sans-serif" font-size="13" lengthAdjust="spacing" textLength="53.4917" x="543" y="457.0445">&#171;extend&#187;</text></g><!--link UC_Register to UC_Verify--><g class="link" data-entity-1="UC_Register" data-entity-2="UC_Verify" data-source-line="38" data-uid="lnk30" id="link_UC_Register_UC_Verify"><path d="M492.04,572.5494 C543.86,572.5494 607.1,572.5494 654.8,572.5494" fill="none" id="UC_Register-to-UC_Verify" style="stroke:#181818;stroke-width:1;stroke-dasharray:7,7;"/><polygon fill="#181818" points="660.8,572.5494,651.8,568.5494,655.8,572.5494,651.8,576.5494,660.8,572.5494" style="stroke:#181818;stroke-width:1;"/><text fill="#000000" font-family="sans-serif" font-size="13" lengthAdjust="spacing" textLength="55.6563" x="542" y="569.0445">&#171;include&#187;</text></g><!--link UC_Email to UC_View--><g class="link" data-entity-1="UC_Email" data-entity-2="UC_View" data-source-line="39" data-uid="lnk31" id="link_UC_Email_UC_View"><path d="M496.2,715.9194 C539.39,719.5794 587.5914,723.6625 631.3514,727.3725" fill="none" id="UC_Email-to-UC_View" style="stroke:#181818;stroke-width:1;stroke-dasharray:7,7;"/><polygon fill="#181818" points="637.33,727.8794,628.7001,723.1334,632.3479,727.457,628.0243,731.1048,637.33,727.8794" style="stroke:#181818;stroke-width:1;"/><text fill="#000000" font-family="sans-serif" font-size="13" lengthAdjust="spacing" textLength="55.6563" x="542" y="717.0445">&#171;include&#187;</text></g><!--link UC_URL to UC_View--><g class="link" data-entity-1="UC_URL" data-entity-2="UC_View" data-source-line="40" data-uid="lnk32" id="link_UC_URL_UC_View"><path d="M460.48,652.2094 C496.42,662.9194 550.9,679.3794 598,694.5494 C621.58,702.1394 641.9936,708.9956 663.6336,716.4056" fill="none" id="UC_URL-to-UC_View" style="stroke:#181818;stroke-width:1;stroke-dasharray:7,7;"/><polygon fill="#181818" points="669.31,718.3494,662.0912,711.6495,664.5796,716.7296,659.4995,719.2181,669.31,718.3494" style="stroke:#181818;stroke-width:1;"/><text fill="#000000" font-family="sans-serif" font-size="13" lengthAdjust="spacing" textLength="55.6563" x="542" y="675.0445">&#171;include&#187;</text></g><!--link UC_File to UC_View--><g class="link" data-entity-1="UC_File" data-entity-2="UC_View" data-source-line="41" data-uid="lnk33" id="link_UC_File_UC_View"><path d="M482.48,770.9594 C530.35,763.4894 590.8816,754.0535 640.6616,746.2935" fill="none" id="UC_File-to-UC_View" style="stroke:#181818;stroke-width:1;stroke-dasharray:7,7;"/><polygon fill="#181818" points="646.59,745.3694,637.0813,742.8033,641.6497,746.1395,638.3135,750.7079,646.59,745.3694" style="stroke:#181818;stroke-width:1;"/><text fill="#000000" font-family="sans-serif" font-size="13" lengthAdjust="spacing" textLength="55.6563" x="542" y="750.0445">&#171;include&#187;</text></g><!--link OAuth to UC_OAuth--><g class="link" data-entity-1="OAuth" data-entity-2="UC_OAuth" data-source-line="43" data-uid="lnk34" id="link_OAuth_UC_OAuth"><path d="M250.14,483.9994 C280.8,487.5494 315.2098,491.5291 348.7998,495.4191" fill="none" id="OAuth-to-UC_OAuth" style="stroke:#181818;stroke-width:1;"/><polygon fill="#181818" points="354.76,496.1094,346.2799,491.1006,349.7932,495.5342,345.3596,499.0475,354.76,496.1094" style="stroke:#181818;stroke-width:1;"/></g><!--link EmailSvc to UC_Verify--><g class="link" data-entity-1="EmailSvc" data-entity-2="UC_Verify" data-source-line="44" data-uid="lnk35" id="link_EmailSvc_UC_Verify"><path d="M463.11,857.5294 C502.69,841.4994 561.21,812.5794 598,770.5494 C621.1,744.1494 611.13,728.2994 628,697.5494 C650.97,655.6594 681.4093,615.5706 699.6693,592.6706" fill="none" id="EmailSvc-to-UC_Verify" style="stroke:#181818;stroke-width:1;"/><polygon fill="#181818" points="703.41,587.9794,694.6715,592.5224,700.2928,591.8887,700.9265,597.51,703.41,587.9794" style="stroke:#181818;stroke-width:1;"/></g><!--link ThreatIntel to UC_Email--><g class="link" data-entity-1="ThreatIntel" data-entity-2="UC_Email" data-source-line="45" data-uid="lnk36" id="link_ThreatIntel_UC_Email"><path d="M266.06,726.5394 C291.33,723.7294 314.6466,721.1412 340.7766,718.2412" fill="none" id="ThreatIntel-to-UC_Email" style="stroke:#181818;stroke-width:1;"/><polygon fill="#181818" points="346.74,717.5794,337.3537,714.5965,341.7705,718.1309,338.2361,722.5477,346.74,717.5794" style="stroke:#181818;stroke-width:1;"/></g><!--link ThreatIntel to UC_URL--><g class="link" data-entity-1="ThreatIntel" data-entity-2="UC_URL" data-source-line="46" data-uid="lnk37" id="link_ThreatIntel_UC_URL"><path d="M263.73,694.4994 C277.01,686.9094 291.23,679.4794 305,673.5494 C327.05,664.0494 346.8338,657.8721 368.1738,652.3121" fill="none" id="ThreatIntel-to-UC_URL" style="stroke:#181818;stroke-width:1;"/><polygon fill="#181818" points="373.98,650.7994,364.2622,649.1977,369.1415,652.06,366.2793,656.9393,373.98,650.7994" style="stroke:#181818;stroke-width:1;"/></g><!--link ThreatIntel to UC_File--><g class="link" data-entity-1="ThreatIntel" data-entity-2="UC_File" data-source-line="47" data-uid="lnk38" id="link_ThreatIntel_UC_File"><path d="M266.06,747.2694 C297.31,754.0694 328.8171,760.9239 358.7871,767.4439" fill="none" id="ThreatIntel-to-UC_File" style="stroke:#181818;stroke-width:1;"/><polygon fill="#181818" points="364.65,768.7194,356.706,762.8976,359.7643,767.6565,355.0054,770.7147,364.65,768.7194" style="stroke:#181818;stroke-width:1;"/></g><!--link AI to UC_AI--><g class="link" data-entity-1="AI" data-entity-2="UC_AI" data-source-line="48" data-uid="lnk39" id="link_AI_UC_AI"><path d="M234.41,375.2894 C269.86,386.2894 322.2693,402.542 363.8293,415.432" fill="none" id="AI-to-UC_AI" style="stroke:#181818;stroke-width:1;"/><polygon fill="#181818" points="369.56,417.2094,362.1489,410.7228,364.7844,415.7282,359.779,418.3637,369.56,417.2094" style="stroke:#181818;stroke-width:1;"/></g><!--SRC=[VPDBRy8m48Jl_XKhJlG0t2k45D4N4b8HjBrMbhCagmP7iXqeVVpt-X67k20kA9dvOdPc4qEcGbYLfCjvYU83NZN2dDkVE-A5uZjMuTQ0gK5HKHh8IQ4mL4l6k32rWi5ZWzgunzG0k0P_6xqr5gGDAinFWBk8_dFMc19MgjvJtjfUYlxzZbC56rHx4kXjhsps8X8lfK9kO24DTg3sP72y4U5iaPoLBHWBqqz_HgCm67Fnk2niAODJAmFuPW2DHk6QwM919aJTI1DopT-ZtcUNTK4IXdxkoOfhVQXLVXEVyEuvVY1RYsyYWg6M7lY6YhR7q4U4WjQdCichunS638PZt5NTVtlj4lowNaR6NbuY7gZ2oHFNtNXEIAOZF82dDMbOesugexinhTc7vwNTe8zi5vHf-uJTG5UgtTBPmQ5su3A79UteT7JhiD-usT5ebcmcKKFxYHHAIIJNGIBui8dY4p7t0aN5JftSjdFrjNPRB6uNnkFJL70Bqob-6fJvRCPw2IBLxjzX94NLv1YuiEa8kRRE41leEk02NY5O6BUD4TxC-5t-2zVx2DE6BnYkvmkoRzk-65snVm00]--></g></svg>